<?xml version="1.0" encoding="utf-8"?>
<!-- Generator: Adobe Illustrator 18.1.1, SVG Export Plug-In . SVG Version: 6.00 Build 0)  -->
<svg version="1.1" id="Livello_1" xmlns="http://www.w3.org/2000/svg" xmlns:xlink="http://www.w3.org/1999/xlink" x="0px" y="0px"
	 viewBox="0 0 1200 1200" enable-background="new 0 0 1200 1200" xml:space="preserve">
<path fill="#FFFFFF" d="M598,1017.7c-235,0-426.2-191.2-426.2-426.2S363,165.3,598,165.3s426.3,191.2,426.3,426.2
	S833,1017.7,598,1017.7z M598,204c-215,0-388.7,175-388.7,388.7c0,215,175,388.7,388.8,388.7c215,0,388.8-175,388.8-388.7
	C988,377.8,813,204,598,204z"/>
<path fill="#FFFFFF" d="M765.5,610.2H431.8c-10,0-18.8-8.8-18.8-18.8s8.8-18.8,18.8-18.8h333.8c10,0,18.8,8.8,18.8,18.8
	C784.3,602.8,775.5,610.2,765.5,610.2z"/>
<path fill="#FFFFFF" d="M598,777.8c-10,0-18.8-8.8-18.8-18.8V425.3c0-10,8.8-18.8,18.8-18.8s18.8,8.8,18.8,18.8V759
	C616.8,769,609.3,777.8,598,777.8z"/>
</svg>
